# xmcd CD database file
#
# Track frame offsets:
#	150
#	9133
#	24936
#	57093
#	70855
#	90323
#	128050
#	148113
#	177709
#	191477
#	204415
#	234124
#	247916
#	269249
#	293182
#
# Disc length: 4195 seconds
#
# Revision: 0
# Processed by: cddbd v1.5.2PL0 Copyright (c) Steve Scherf et al.
# Submitted via: CDex 1.70beta2
#
DISCID=cb10610f
DTITLE=Andre Krengel Acoustic Embasy - head, heart and hands
DYEAR=2007
DGENRE=Jazz
TTITLE0=Nameless
TTITLE1=Cesar Swing
TTITLE2=Another Shape at my heart
TTITLE3=Sway
TTITLE4=Children
TTITLE5=Nigerian Marketplace
TTITLE6=Undecided
TTITLE7=If there is you and me
TTITLE8=The Waltz
TTITLE9=Barcelona Nights
TTITLE10=Long ago and far away
TTITLE11=I'm running late, again - the "hurry up boogy"
TTITLE12=Döner fantasy
TTITLE13=Fields of Gold
TTITLE14=Soltane Ghalbha (Tschador)
EXTD=YEAR: 2007
EXTT0=
EXTT1=
EXTT2=
EXTT3=
EXTT4=
EXTT5=
EXTT6=
EXTT7=
EXTT8=
EXTT9=
EXTT10=
EXTT11=
EXTT12=
EXTT13=
EXTT14=
PLAYORDER=
